# xmcd
#
# Track frame offsets: 
#        150
#        19503
#        37693
#        51820
#        63664
#        76642
#        90213
#        102561
#        123959
#        135947
#        148154
#        160697
#        171388
#        187167
#
# Disc length: 2694 seconds
#
# Revision: 0
# Processed by: cddbd v1.5.2PL0 Copyright (c) Steve Scherf et al.
# Submitted via: ExactAudioCopy v0.99pb3
#
DISCID=ac0a840e
DTITLE=Texas Northside Kings - Texas Northside Kings
DYEAR=2007
DGENRE=Blues
TTITLE0=You Belong To Me - Eva Moonsees
TTITLE1=Radio Groove - Johnny Moeller
TTITLE2=I Don't Need No Sugar Mama - Shawn Pittman
TTITLE3=I'll Be Afraid - Nick Curran
TTITLE4=I Hear You Knocking - Seth Walker
TTITLE5=Red Hot Mama - Mike Keller
TTITLE6=Call 'em How I See Them - Shawn Pittman
TTITLE7=Since I Fell For You - Seth Walker
TTITLE8=I Was Lookin' Back To See - Eva Moonsees
TTITLE9=Slippin' And Slidin' - Nick Curran
TTITLE10=I'm A Samplin' Man - Johnny Moeller
TTITLE11=Hawaiian Hound - Eva Moonsees
TTITLE12=Oh Baby - Nick Curran
TTITLE13=Reap What You Sow - Shawn Pittman
EXTD=
EXTT0=
EXTT1=
EXTT2=
EXTT3=
EXTT4=
EXTT5=
EXTT6=
EXTT7=
EXTT8=
EXTT9=
EXTT10=
EXTT11=
EXTT12=
EXTT13=
PLAYORDER=
